<?xml version="1.0" encoding="UTF-8" standalone="no"?>
<!DOCTYPE svg PUBLIC "-//W3C//DTD SVG 1.1//EN"
 "http://www.w3.org/Graphics/SVG/1.1/DTD/svg11.dtd">
<!-- Generated by graphviz version 2.40.1 (20161225.0304)
 -->
<!-- Title: G Pages: 1 -->
<svg width="648pt" height="520pt"
 viewBox="0.00 0.00 648.00 519.82" xmlns="http://www.w3.org/2000/svg" xmlns:xlink="http://www.w3.org/1999/xlink">
<g id="graph0" class="graph" transform="scale(.7799 .7799) rotate(0) translate(4 662.526)">
<title>G</title>
<polygon fill="#ffffff" stroke="transparent" points="-4,4 -4,-662.526 826.8772,-662.526 826.8772,4 -4,4"/>
<!-- FieldValidator -->
<g id="node1" class="node">
<title>FieldValidator</title>
<ellipse fill="none" stroke="#000000" cx="424.267" cy="-492.6021" rx="73.3411" ry="18.2703"/>
<text text-anchor="middle" x="424.267" y="-488.1021" font-family="Times,serif" font-size="15.00" fill="#000000">FieldValidator</text>
</g>
<!-- @Email -->
<g id="node2" class="node">
<title>@Email</title>
<ellipse fill="none" stroke="#000000" cx="570.267" cy="-418.8325" rx="46.3305" ry="18.2703"/>
<text text-anchor="middle" x="570.267" y="-414.3325" font-family="Times,serif" font-size="15.00" fill="#000000">@Email</text>
</g>
<!-- FieldValidator&#45;&gt;@Email -->
<g id="edge1" class="edge">
<title>FieldValidator&#45;&gt;@Email</title>
<path fill="none" stroke="#000000" d="M457.0323,-476.0468C479.4471,-464.7212 509.2218,-449.6769 532.6138,-437.8576"/>
<polygon fill="#000000" stroke="#000000" points="534.2127,-440.9712 541.5596,-433.3376 531.0558,-434.7235 534.2127,-440.9712"/>
</g>
<!-- @Negative -->
<g id="node3" class="node">
<title>@Negative</title>
<ellipse fill="none" stroke="#000000" cx="239.267" cy="-418.8325" rx="59.2299" ry="18.2703"/>
<text text-anchor="middle" x="239.267" y="-414.3325" font-family="Times,serif" font-size="15.00" fill="#000000">@Negative</text>
</g>
<!-- FieldValidator&#45;&gt;@Negative -->
<g id="edge2" class="edge">
<title>FieldValidator&#45;&gt;@Negative</title>
<path fill="none" stroke="#000000" d="M385.0333,-476.9575C355.9384,-465.3558 316.1781,-449.5012 285.5322,-437.281"/>
<polygon fill="#000000" stroke="#000000" points="286.5128,-433.904 275.9276,-433.4511 283.92,-440.4062 286.5128,-433.904"/>
</g>
<!-- @Pozitive -->
<g id="node4" class="node">
<title>@Pozitive</title>
<ellipse fill="none" stroke="#000000" cx="424.267" cy="-418.8325" rx="55.6872" ry="18.2703"/>
<text text-anchor="middle" x="424.267" y="-414.3325" font-family="Times,serif" font-size="15.00" fill="#000000">@Pozitive</text>
</g>
<!-- FieldValidator&#45;&gt;@Pozitive -->
<g id="edge3" class="edge">
<title>FieldValidator&#45;&gt;@Pozitive</title>
<path fill="none" stroke="#000000" d="M424.267,-473.9869C424.267,-465.9492 424.267,-456.363 424.267,-447.4546"/>
<polygon fill="#000000" stroke="#000000" points="427.7671,-447.4417 424.267,-437.4418 420.7671,-447.4418 427.7671,-447.4417"/>
</g>
<!-- EmailFieldValidator -->
<g id="node13" class="node">
<title>EmailFieldValidator</title>
<ellipse fill="none" stroke="#000000" cx="648.267" cy="-345.063" rx="98.5084" ry="18.2703"/>
<text text-anchor="middle" x="648.267" y="-340.563" font-family="Times,serif" font-size="15.00" fill="#000000">EmailFieldValidator</text>
</g>
<!-- @Email&#45;&gt;EmailFieldValidator -->
<g id="edge12" class="edge">
<title>@Email&#45;&gt;EmailFieldValidator</title>
<path fill="none" stroke="#000000" d="M588.3579,-401.7229C598.3037,-392.3165 610.8254,-380.4739 621.8462,-370.0509"/>
<polygon fill="#000000" stroke="#000000" points="624.3257,-372.5233 629.1861,-363.109 619.5157,-367.4375 624.3257,-372.5233"/>
</g>
<!-- NegativeFieldValidator -->
<g id="node14" class="node">
<title>NegativeFieldValidator</title>
<ellipse fill="none" stroke="#000000" cx="187.267" cy="-345.063" rx="111.4077" ry="18.2703"/>
<text text-anchor="middle" x="187.267" y="-340.563" font-family="Times,serif" font-size="15.00" fill="#000000">NegativeFieldValidator</text>
</g>
<!-- @Negative&#45;&gt;NegativeFieldValidator -->
<g id="edge13" class="edge">
<title>@Negative&#45;&gt;NegativeFieldValidator</title>
<path fill="none" stroke="#000000" d="M226.4131,-400.5974C220.288,-391.9081 212.842,-381.3448 206.0951,-371.7733"/>
<polygon fill="#000000" stroke="#000000" points="208.7755,-369.501 200.1533,-363.3441 203.0541,-373.5341 208.7755,-369.501"/>
</g>
<!-- PozitiveFieldValidator -->
<g id="node15" class="node">
<title>PozitiveFieldValidator</title>
<ellipse fill="none" stroke="#000000" cx="424.267" cy="-345.063" rx="107.8649" ry="18.2703"/>
<text text-anchor="middle" x="424.267" y="-340.563" font-family="Times,serif" font-size="15.00" fill="#000000">PozitiveFieldValidator</text>
</g>
<!-- @Pozitive&#45;&gt;PozitiveFieldValidator -->
<g id="edge14" class="edge">
<title>@Pozitive&#45;&gt;PozitiveFieldValidator</title>
<path fill="none" stroke="#000000" d="M424.267,-400.2174C424.267,-392.1797 424.267,-382.5934 424.267,-373.6851"/>
<polygon fill="#000000" stroke="#000000" points="427.7671,-373.6722 424.267,-363.6722 420.7671,-373.6722 427.7671,-373.6722"/>
</g>
<!-- @Size -->
<g id="node5" class="node">
<title>@Size</title>
<ellipse fill="none" stroke="#000000" cx="412.267" cy="-566.3716" rx="39.1839" ry="18.2703"/>
<text text-anchor="middle" x="412.267" y="-561.8716" font-family="Times,serif" font-size="15.00" fill="#000000">@Size</text>
</g>
<!-- @Size&#45;&gt;FieldValidator -->
<g id="edge4" class="edge">
<title>@Size&#45;&gt;FieldValidator</title>
<path fill="none" stroke="#000000" d="M415.2951,-547.7565C416.6026,-539.7188 418.162,-530.1325 419.6111,-521.2242"/>
<polygon fill="#000000" stroke="#000000" points="423.0888,-521.6436 421.2399,-511.2113 416.1796,-520.5196 423.0888,-521.6436"/>
</g>
<!-- SizeFieldValidator -->
<g id="node6" class="node">
<title>SizeFieldValidator</title>
<ellipse fill="none" stroke="#000000" cx="318.267" cy="-640.1412" rx="91.3614" ry="18.2703"/>
<text text-anchor="middle" x="318.267" y="-635.6412" font-family="Times,serif" font-size="15.00" fill="#000000">SizeFieldValidator</text>
</g>
<!-- SizeFieldValidator&#45;&gt;@Size -->
<g id="edge5" class="edge">
<title>SizeFieldValidator&#45;&gt;@Size</title>
<path fill="none" stroke="#000000" d="M341.0218,-622.2836C353.8907,-612.1843 370.0991,-599.4643 383.8037,-588.7092"/>
<polygon fill="#000000" stroke="#000000" points="386.2549,-591.2347 391.9609,-582.3076 381.9333,-585.7279 386.2549,-591.2347"/>
</g>
<!-- Validator -->
<g id="node16" class="node">
<title>Validator</title>
<ellipse fill="none" stroke="#000000" cx="424.267" cy="-271.2934" rx="51.2352" ry="18.2703"/>
<text text-anchor="middle" x="424.267" y="-266.7934" font-family="Times,serif" font-size="15.00" fill="#000000">Validator</text>
</g>
<!-- SizeFieldValidator&#45;&gt;Validator -->
<g id="edge19" class="edge">
<title>SizeFieldValidator&#45;&gt;Validator</title>
<path fill="none" stroke="#000000" d="M285.1522,-622.8273C197.5841,-574.9073 -27.0853,-436.797 67.267,-326.6782 86.2899,-304.4766 266.9855,-285.235 363.7558,-276.4193"/>
<polygon fill="#000000" stroke="#000000" points="364.3421,-279.8807 373.9877,-275.4975 363.714,-272.9089 364.3421,-279.8807"/>
</g>
<!-- @Regex -->
<g id="node7" class="node">
<title>@Regex</title>
<ellipse fill="none" stroke="#000000" cx="86.267" cy="-566.3716" rx="48.3567" ry="18.2703"/>
<text text-anchor="middle" x="86.267" y="-561.8716" font-family="Times,serif" font-size="15.00" fill="#000000">@Regex</text>
</g>
<!-- @Regex&#45;&gt;FieldValidator -->
<g id="edge6" class="edge">
<title>@Regex&#45;&gt;FieldValidator</title>
<path fill="none" stroke="#000000" d="M128.3916,-557.1778C186.2114,-544.5585 290.7241,-521.7483 358.7909,-506.8925"/>
<polygon fill="#000000" stroke="#000000" points="359.9504,-510.2219 368.9741,-504.6699 358.4578,-503.3828 359.9504,-510.2219"/>
</g>
<!-- RegexFieldValidator -->
<g id="node8" class="node">
<title>RegexFieldValidator</title>
<ellipse fill="none" stroke="#000000" cx="100.267" cy="-640.1412" rx="100.0346" ry="18.2703"/>
<text text-anchor="middle" x="100.267" y="-635.6412" font-family="Times,serif" font-size="15.00" fill="#000000">RegexFieldValidator</text>
</g>
<!-- RegexFieldValidator&#45;&gt;@Regex -->
<g id="edge7" class="edge">
<title>RegexFieldValidator&#45;&gt;@Regex</title>
<path fill="none" stroke="#000000" d="M96.7342,-621.526C95.1972,-613.427 93.3618,-603.7556 91.6602,-594.7898"/>
<polygon fill="#000000" stroke="#000000" points="95.0534,-593.8973 89.7502,-584.7253 88.1762,-595.2026 95.0534,-593.8973"/>
</g>
<!-- RegexFieldValidator&#45;&gt;Validator -->
<g id="edge20" class="edge">
<title>RegexFieldValidator&#45;&gt;Validator</title>
<path fill="none" stroke="#000000" d="M56.8488,-623.4829C33.8341,-611.5344 10.267,-592.8377 10.267,-566.3716 10.267,-566.3716 10.267,-566.3716 10.267,-345.063 10.267,-309.5846 248.9593,-285.4524 363.8611,-275.891"/>
<polygon fill="#000000" stroke="#000000" points="364.2365,-279.3721 373.9164,-275.0652 363.6634,-272.3956 364.2365,-279.3721"/>
</g>
<!-- @Min -->
<g id="node9" class="node">
<title>@Min</title>
<ellipse fill="none" stroke="#000000" cx="511.267" cy="-566.3716" rx="38.5223" ry="18.2703"/>
<text text-anchor="middle" x="511.267" y="-561.8716" font-family="Times,serif" font-size="15.00" fill="#000000">@Min</text>
</g>
<!-- @Min&#45;&gt;FieldValidator -->
<g id="edge8" class="edge">
<title>@Min&#45;&gt;FieldValidator</title>
<path fill="none" stroke="#000000" d="M491.9589,-549.9998C480.517,-540.2979 465.8008,-527.8197 453.0139,-516.9773"/>
<polygon fill="#000000" stroke="#000000" points="455.2389,-514.2751 445.3481,-510.4773 450.7118,-519.6141 455.2389,-514.2751"/>
</g>
<!-- MinFieldValidator -->
<g id="node10" class="node">
<title>MinFieldValidator</title>
<ellipse fill="none" stroke="#000000" cx="520.267" cy="-640.1412" rx="90.6991" ry="18.2703"/>
<text text-anchor="middle" x="520.267" y="-635.6412" font-family="Times,serif" font-size="15.00" fill="#000000">MinFieldValidator</text>
</g>
<!-- MinFieldValidator&#45;&gt;@Min -->
<g id="edge9" class="edge">
<title>MinFieldValidator&#45;&gt;@Min</title>
<path fill="none" stroke="#000000" d="M517.996,-621.526C517.0153,-613.4883 515.8458,-603.9021 514.759,-594.9937"/>
<polygon fill="#000000" stroke="#000000" points="518.2228,-594.4834 513.5374,-584.9809 511.2743,-595.3312 518.2228,-594.4834"/>
</g>
<!-- MinFieldValidator&#45;&gt;Validator -->
<g id="edge16" class="edge">
<title>MinFieldValidator&#45;&gt;Validator</title>
<path fill="none" stroke="#000000" d="M551.4057,-622.7907C634.2988,-574.4924 847.9535,-434.927 756.267,-326.6782 738.9021,-306.1765 575.1394,-286.5474 484.2874,-277.1182"/>
<polygon fill="#000000" stroke="#000000" points="484.426,-273.6141 474.1207,-276.074 483.7107,-280.5775 484.426,-273.6141"/>
</g>
<!-- @Max -->
<g id="node11" class="node">
<title>@Max</title>
<ellipse fill="none" stroke="#000000" cx="744.267" cy="-566.3716" rx="40.5422" ry="18.2703"/>
<text text-anchor="middle" x="744.267" y="-561.8716" font-family="Times,serif" font-size="15.00" fill="#000000">@Max</text>
</g>
<!-- @Max&#45;&gt;FieldValidator -->
<g id="edge10" class="edge">
<title>@Max&#45;&gt;FieldValidator</title>
<path fill="none" stroke="#000000" d="M707.8705,-557.9812C654.4265,-545.6607 553.939,-522.4954 488.0616,-507.3086"/>
<polygon fill="#000000" stroke="#000000" points="488.7315,-503.8713 478.2008,-505.0354 487.159,-510.6924 488.7315,-503.8713"/>
</g>
<!-- MaxFieldValidator -->
<g id="node12" class="node">
<title>MaxFieldValidator</title>
<ellipse fill="none" stroke="#000000" cx="730.267" cy="-640.1412" rx="92.7204" ry="18.2703"/>
<text text-anchor="middle" x="730.267" y="-635.6412" font-family="Times,serif" font-size="15.00" fill="#000000">MaxFieldValidator</text>
</g>
<!-- MaxFieldValidator&#45;&gt;@Max -->
<g id="edge11" class="edge">
<title>MaxFieldValidator&#45;&gt;@Max</title>
<path fill="none" stroke="#000000" d="M733.7998,-621.526C735.3369,-613.427 737.1723,-603.7556 738.8738,-594.7898"/>
<polygon fill="#000000" stroke="#000000" points="742.3579,-595.2026 740.7839,-584.7253 735.4806,-593.8973 742.3579,-595.2026"/>
</g>
<!-- MaxFieldValidator&#45;&gt;Validator -->
<g id="edge21" class="edge">
<title>MaxFieldValidator&#45;&gt;Validator</title>
<path fill="none" stroke="#000000" d="M769.3366,-623.1739C790.8643,-610.922 813.267,-592.0122 813.267,-566.3716 813.267,-566.3716 813.267,-566.3716 813.267,-345.063 813.267,-312.0176 593.7773,-286.9931 484.5416,-276.5852"/>
<polygon fill="#000000" stroke="#000000" points="484.6096,-273.0762 474.3256,-275.6238 483.9537,-280.0454 484.6096,-273.0762"/>
</g>
<!-- EmailFieldValidator&#45;&gt;Validator -->
<g id="edge15" class="edge">
<title>EmailFieldValidator&#45;&gt;Validator</title>
<path fill="none" stroke="#000000" d="M599.6624,-329.0561C561.8649,-316.6083 509.7042,-299.4303 472.1033,-287.0473"/>
<polygon fill="#000000" stroke="#000000" points="472.9855,-283.6529 462.3925,-283.8492 470.7958,-290.3017 472.9855,-283.6529"/>
</g>
<!-- NegativeFieldValidator&#45;&gt;Validator -->
<g id="edge17" class="edge">
<title>NegativeFieldValidator&#45;&gt;Validator</title>
<path fill="none" stroke="#000000" d="M239.5711,-328.7826C280.1614,-316.1483 336.0085,-298.7651 375.6377,-286.43"/>
<polygon fill="#000000" stroke="#000000" points="376.8365,-289.7226 385.3444,-283.4086 374.756,-283.0389 376.8365,-289.7226"/>
</g>
<!-- PozitiveFieldValidator&#45;&gt;Validator -->
<g id="edge18" class="edge">
<title>PozitiveFieldValidator&#45;&gt;Validator</title>
<path fill="none" stroke="#000000" d="M424.267,-326.4478C424.267,-318.4101 424.267,-308.8239 424.267,-299.9155"/>
<polygon fill="#000000" stroke="#000000" points="427.7671,-299.9026 424.267,-289.9027 420.7671,-299.9027 427.7671,-299.9026"/>
</g>
<!-- ContextValidator -->
<g id="node17" class="node">
<title>ContextValidator</title>
<ellipse fill="none" stroke="#000000" cx="424.267" cy="-181.7239" rx="84.9086" ry="18.2703"/>
<text text-anchor="middle" x="424.267" y="-177.2239" font-family="Times,serif" font-size="15.00" fill="#000000">ContextValidator</text>
</g>
<!-- Validator&#45;&gt;ContextValidator -->
<g id="edge23" class="edge">
<title>Validator&#45;&gt;ContextValidator</title>
<path fill="none" stroke="#0000ff" d="M424.267,-252.7346C424.267,-240.4847 424.267,-224.193 424.267,-210.3044"/>
<polygon fill="#0000ff" stroke="#0000ff" points="427.7671,-210.2589 424.267,-200.259 420.7671,-210.259 427.7671,-210.2589"/>
<text text-anchor="middle" x="475.7793" y="-222.3087" font-family="Times,serif" font-size="14.00" fill="#000000"> &#160;&#160;&#160;Strategy pattern</text>
</g>
<!-- FieldContext -->
<g id="node18" class="node">
<title>FieldContext</title>
<ellipse fill="none" stroke="#000000" cx="424.267" cy="-92.1543" rx="66.9076" ry="18.2703"/>
<text text-anchor="middle" x="424.267" y="-87.6543" font-family="Times,serif" font-size="15.00" fill="#000000">FieldContext</text>
</g>
<!-- ContextValidator&#45;&gt;FieldContext -->
<g id="edge22" class="edge">
<title>ContextValidator&#45;&gt;FieldContext</title>
<path fill="none" stroke="#000000" d="M424.267,-163.165C424.267,-150.9152 424.267,-134.6234 424.267,-120.7349"/>
<polygon fill="#000000" stroke="#000000" points="427.7671,-120.6894 424.267,-110.6894 420.7671,-120.6895 427.7671,-120.6894"/>
<text text-anchor="middle" x="527.5023" y="-132.7391" font-family="Times,serif" font-size="14.00" fill="#000000"> &#160;&#160;ContextValidator has FieldContext</text>
</g>
<!-- IsValidObject -->
<g id="node19" class="node">
<title>IsValidObject</title>
<ellipse fill="none" stroke="#000000" cx="424.267" cy="-18.3848" rx="70.6107" ry="18.2703"/>
<text text-anchor="middle" x="424.267" y="-13.8848" font-family="Times,serif" font-size="15.00" fill="#000000">IsValidObject</text>
</g>
<!-- FieldContext&#45;&gt;IsValidObject -->
<g id="edge24" class="edge">
<title>FieldContext&#45;&gt;IsValidObject</title>
<path fill="none" stroke="#000000" d="M424.267,-73.5392C424.267,-65.5014 424.267,-55.9152 424.267,-47.0069"/>
<polygon fill="#000000" stroke="#000000" points="427.7671,-46.994 424.267,-36.994 420.7671,-46.994 427.7671,-46.994"/>
</g>
</g>
</svg>
