<?xml version="1.0" encoding="UTF-8" standalone="no"?>
<!DOCTYPE svg PUBLIC "-//W3C//DTD SVG 1.1//EN"
 "http://www.w3.org/Graphics/SVG/1.1/DTD/svg11.dtd">
<!-- Generated by graphviz version 2.40.1 (20161225.0304)
 -->
<!-- Title: G Pages: 1 -->
<svg width="1286pt" height="432pt"
 viewBox="0.00 0.00 1286.34 432.00" xmlns="http://www.w3.org/2000/svg" xmlns:xlink="http://www.w3.org/1999/xlink">
<g id="graph0" class="graph" transform="scale(.5734 .5734) rotate(0) translate(4 749.4503)">
<title>G</title>
<polygon fill="#ffffff" stroke="transparent" points="-4,4 -4,-749.4503 2239.5057,-749.4503 2239.5057,4 -4,4"/>
<!-- FieldValidator -->
<g id="node1" class="node">
<title>FieldValidator</title>
<ellipse fill="none" stroke="#000000" cx="1176.3706" cy="-524" rx="126.5593" ry="29.3315"/>
<text text-anchor="middle" x="1176.3706" y="-515.6" font-family="Times,serif" font-size="28.00" fill="#000000">FieldValidator</text>
</g>
<!-- @Email -->
<g id="node2" class="node">
<title>@Email</title>
<ellipse fill="none" stroke="#000000" cx="1458.3706" cy="-429" rx="76.6733" ry="29.3315"/>
<text text-anchor="middle" x="1458.3706" y="-420.6" font-family="Times,serif" font-size="28.00" fill="#000000">@Email</text>
</g>
<!-- FieldValidator&#45;&gt;@Email -->
<g id="edge1" class="edge">
<title>FieldValidator&#45;&gt;@Email</title>
<path fill="none" stroke="#000000" d="M1248.6265,-499.6585C1292.472,-484.8879 1348.0593,-466.1616 1390.9909,-451.6988"/>
<polygon fill="#000000" stroke="#000000" points="1392.1447,-455.0035 1400.504,-448.4941 1389.9099,-448.3698 1392.1447,-455.0035"/>
</g>
<!-- @Negative -->
<g id="node3" class="node">
<title>@Negative</title>
<ellipse fill="none" stroke="#000000" cx="809.3706" cy="-429" rx="101.0181" ry="29.3315"/>
<text text-anchor="middle" x="809.3706" y="-420.6" font-family="Times,serif" font-size="28.00" fill="#000000">@Negative</text>
</g>
<!-- FieldValidator&#45;&gt;@Negative -->
<g id="edge2" class="edge">
<title>FieldValidator&#45;&gt;@Negative</title>
<path fill="none" stroke="#000000" d="M1091.7126,-502.0858C1032.558,-486.7733 953.8698,-466.4044 894.5917,-451.06"/>
<polygon fill="#000000" stroke="#000000" points="895.4369,-447.6634 884.8789,-448.5457 893.6827,-454.4401 895.4369,-447.6634"/>
</g>
<!-- @Pozitive -->
<g id="node4" class="node">
<title>@Pozitive</title>
<ellipse fill="none" stroke="#000000" cx="1176.3706" cy="-429" rx="94.3717" ry="29.3315"/>
<text text-anchor="middle" x="1176.3706" y="-420.6" font-family="Times,serif" font-size="28.00" fill="#000000">@Pozitive</text>
</g>
<!-- FieldValidator&#45;&gt;@Pozitive -->
<g id="edge3" class="edge">
<title>FieldValidator&#45;&gt;@Pozitive</title>
<path fill="none" stroke="#000000" d="M1176.3706,-494.4622C1176.3706,-486.3303 1176.3706,-477.3748 1176.3706,-468.7673"/>
<polygon fill="#000000" stroke="#000000" points="1179.8707,-468.5195 1176.3706,-458.5196 1172.8707,-468.5196 1179.8707,-468.5195"/>
</g>
<!-- EmailFieldValidator -->
<g id="node13" class="node">
<title>EmailFieldValidator</title>
<ellipse fill="none" stroke="#000000" cx="1631.3706" cy="-333" rx="174.1387" ry="29.3315"/>
<text text-anchor="middle" x="1631.3706" y="-324.6" font-family="Times,serif" font-size="28.00" fill="#000000">EmailFieldValidator</text>
</g>
<!-- @Email&#45;&gt;EmailFieldValidator -->
<g id="edge12" class="edge">
<title>@Email&#45;&gt;EmailFieldValidator</title>
<path fill="none" stroke="#000000" d="M1502.0259,-404.7751C1523.0572,-393.1046 1548.6094,-378.9253 1571.4303,-366.2617"/>
<polygon fill="#000000" stroke="#000000" points="1573.3112,-369.2208 1580.3569,-361.3082 1569.9146,-363.1 1573.3112,-369.2208"/>
</g>
<!-- NegativeFieldValidator -->
<g id="node14" class="node">
<title>NegativeFieldValidator</title>
<ellipse fill="none" stroke="#000000" cx="693.3706" cy="-333" rx="198.4841" ry="29.3315"/>
<text text-anchor="middle" x="693.3706" y="-324.6" font-family="Times,serif" font-size="28.00" fill="#000000">NegativeFieldValidator</text>
</g>
<!-- @Negative&#45;&gt;NegativeFieldValidator -->
<g id="edge13" class="edge">
<title>@Negative&#45;&gt;NegativeFieldValidator</title>
<path fill="none" stroke="#000000" d="M775.8186,-401.2328C763.5172,-391.0523 749.4198,-379.3855 736.4022,-368.6123"/>
<polygon fill="#000000" stroke="#000000" points="738.3977,-365.7206 728.4622,-362.0413 733.9347,-371.1134 738.3977,-365.7206"/>
</g>
<!-- PozitiveFieldValidator -->
<g id="node15" class="node">
<title>PozitiveFieldValidator</title>
<ellipse fill="none" stroke="#000000" cx="1176.3706" cy="-333" rx="191.8374" ry="29.3315"/>
<text text-anchor="middle" x="1176.3706" y="-324.6" font-family="Times,serif" font-size="28.00" fill="#000000">PozitiveFieldValidator</text>
</g>
<!-- @Pozitive&#45;&gt;PozitiveFieldValidator -->
<g id="edge14" class="edge">
<title>@Pozitive&#45;&gt;PozitiveFieldValidator</title>
<path fill="none" stroke="#000000" d="M1176.3706,-399.4135C1176.3706,-391.0189 1176.3706,-381.7386 1176.3706,-372.8433"/>
<polygon fill="#000000" stroke="#000000" points="1179.8707,-372.654 1176.3706,-362.6541 1172.8707,-372.6541 1179.8707,-372.654"/>
</g>
<!-- @Size -->
<g id="node5" class="node">
<title>@Size</title>
<ellipse fill="none" stroke="#000000" cx="1070.3706" cy="-620" rx="63.7654" ry="29.3315"/>
<text text-anchor="middle" x="1070.3706" y="-611.6" font-family="Times,serif" font-size="28.00" fill="#000000">@Size</text>
</g>
<!-- @Size&#45;&gt;FieldValidator -->
<g id="edge4" class="edge">
<title>@Size&#45;&gt;FieldValidator</title>
<path fill="none" stroke="#000000" d="M1099.3356,-593.7676C1111.011,-583.1937 1124.6606,-570.8317 1137.1999,-559.4754"/>
<polygon fill="#000000" stroke="#000000" points="1139.7737,-561.8665 1144.8362,-552.5595 1135.0747,-556.6781 1139.7737,-561.8665"/>
</g>
<!-- SizeFieldValidator -->
<g id="node6" class="node">
<title>SizeFieldValidator</title>
<ellipse fill="none" stroke="#000000" cx="818.3706" cy="-716" rx="160.7309" ry="29.3315"/>
<text text-anchor="middle" x="818.3706" y="-707.6" font-family="Times,serif" font-size="28.00" fill="#000000">SizeFieldValidator</text>
</g>
<!-- SizeFieldValidator&#45;&gt;@Size -->
<g id="edge5" class="edge">
<title>SizeFieldValidator&#45;&gt;@Size</title>
<path fill="none" stroke="#000000" d="M888.232,-689.3861C927.0084,-674.6142 974.7013,-656.4455 1011.5557,-642.4057"/>
<polygon fill="#000000" stroke="#000000" points="1013.0632,-645.5769 1021.162,-638.7461 1010.5711,-639.0354 1013.0632,-645.5769"/>
</g>
<!-- Validator -->
<g id="node16" class="node">
<title>Validator</title>
<ellipse fill="none" stroke="#000000" cx="1176.3706" cy="-237" rx="86.1613" ry="29.3315"/>
<text text-anchor="middle" x="1176.3706" y="-228.6" font-family="Times,serif" font-size="28.00" fill="#000000">Validator</text>
</g>
<!-- SizeFieldValidator&#45;&gt;Validator -->
<g id="edge19" class="edge">
<title>SizeFieldValidator&#45;&gt;Validator</title>
<path fill="none" stroke="#000000" d="M665.5827,-706.7133C555.1739,-695.6548 425.3706,-671.6668 425.3706,-620 425.3706,-620 425.3706,-620 425.3706,-333 425.3706,-267.7233 877.5615,-245.9478 1080.1766,-239.4672"/>
<polygon fill="#000000" stroke="#000000" points="1080.3362,-242.964 1090.2214,-239.1519 1080.1165,-235.9675 1080.3362,-242.964"/>
</g>
<!-- @Regex -->
<g id="node7" class="node">
<title>@Regex</title>
<ellipse fill="none" stroke="#000000" cx="297.3706" cy="-620" rx="80.2544" ry="29.3315"/>
<text text-anchor="middle" x="297.3706" y="-611.6" font-family="Times,serif" font-size="28.00" fill="#000000">@Regex</text>
</g>
<!-- @Regex&#45;&gt;FieldValidator -->
<g id="edge6" class="edge">
<title>@Regex&#45;&gt;FieldValidator</title>
<path fill="none" stroke="#000000" d="M374.2217,-611.6067C526.3026,-594.9972 866.8586,-557.8034 1051.5437,-537.633"/>
<polygon fill="#000000" stroke="#000000" points="1052.0164,-541.1023 1061.5773,-536.5372 1051.2563,-534.1436 1052.0164,-541.1023"/>
</g>
<!-- RegexFieldValidator -->
<g id="node8" class="node">
<title>RegexFieldValidator</title>
<ellipse fill="none" stroke="#000000" cx="210.3706" cy="-716" rx="177.2199" ry="29.3315"/>
<text text-anchor="middle" x="210.3706" y="-707.6" font-family="Times,serif" font-size="28.00" fill="#000000">RegexFieldValidator</text>
</g>
<!-- RegexFieldValidator&#45;&gt;@Regex -->
<g id="edge7" class="edge">
<title>RegexFieldValidator&#45;&gt;@Regex</title>
<path fill="none" stroke="#000000" d="M236.9462,-686.6752C245.7864,-676.9205 255.7314,-665.9468 264.9623,-655.7609"/>
<polygon fill="#000000" stroke="#000000" points="267.7302,-657.9188 271.852,-648.1586 262.5433,-653.2181 267.7302,-657.9188"/>
</g>
<!-- RegexFieldValidator&#45;&gt;Validator -->
<g id="edge20" class="edge">
<title>RegexFieldValidator&#45;&gt;Validator</title>
<path fill="none" stroke="#000000" d="M190.5912,-686.6682C180.1067,-668.3229 169.3706,-643.7412 169.3706,-620 169.3706,-620 169.3706,-620 169.3706,-333 169.3706,-287.5032 829.3766,-252.7528 1080.7347,-241.1681"/>
<polygon fill="#000000" stroke="#000000" points="1081.1196,-244.6542 1090.9488,-240.6997 1080.7989,-237.6615 1081.1196,-244.6542"/>
</g>
<!-- @Min -->
<g id="node9" class="node">
<title>@Min</title>
<ellipse fill="none" stroke="#000000" cx="1282.3706" cy="-620" rx="62.5951" ry="29.3315"/>
<text text-anchor="middle" x="1282.3706" y="-611.6" font-family="Times,serif" font-size="28.00" fill="#000000">@Min</text>
</g>
<!-- @Min&#45;&gt;FieldValidator -->
<g id="edge8" class="edge">
<title>@Min&#45;&gt;FieldValidator</title>
<path fill="none" stroke="#000000" d="M1253.4057,-593.7676C1241.7303,-583.1937 1228.0807,-570.8317 1215.5414,-559.4754"/>
<polygon fill="#000000" stroke="#000000" points="1217.6666,-556.6781 1207.9051,-552.5595 1212.9676,-561.8665 1217.6666,-556.6781"/>
</g>
<!-- MinFieldValidator -->
<g id="node10" class="node">
<title>MinFieldValidator</title>
<ellipse fill="none" stroke="#000000" cx="1497.3706" cy="-716" rx="159.5611" ry="29.3315"/>
<text text-anchor="middle" x="1497.3706" y="-707.6" font-family="Times,serif" font-size="28.00" fill="#000000">MinFieldValidator</text>
</g>
<!-- MinFieldValidator&#45;&gt;@Min -->
<g id="edge9" class="edge">
<title>MinFieldValidator&#45;&gt;@Min</title>
<path fill="none" stroke="#000000" d="M1436.3354,-688.747C1405.058,-674.7813 1367.2824,-657.9141 1336.9769,-644.3823"/>
<polygon fill="#000000" stroke="#000000" points="1338.3851,-641.1781 1327.827,-640.2968 1335.5311,-647.5699 1338.3851,-641.1781"/>
</g>
<!-- MinFieldValidator&#45;&gt;Validator -->
<g id="edge16" class="edge">
<title>MinFieldValidator&#45;&gt;Validator</title>
<path fill="none" stroke="#000000" d="M1645.5938,-705.0035C1749.6725,-693.0481 1870.3706,-668.6878 1870.3706,-620 1870.3706,-620 1870.3706,-620 1870.3706,-333 1870.3706,-273.327 1462.5688,-248.729 1272.1724,-240.4964"/>
<polygon fill="#000000" stroke="#000000" points="1272.3047,-236.999 1262.1647,-240.0701 1272.0067,-243.9926 1272.3047,-236.999"/>
</g>
<!-- @Max -->
<g id="node11" class="node">
<title>@Max</title>
<ellipse fill="none" stroke="#000000" cx="1982.3706" cy="-620" rx="65.6688" ry="29.3315"/>
<text text-anchor="middle" x="1982.3706" y="-611.6" font-family="Times,serif" font-size="28.00" fill="#000000">@Max</text>
</g>
<!-- @Max&#45;&gt;FieldValidator -->
<g id="edge10" class="edge">
<title>@Max&#45;&gt;FieldValidator</title>
<path fill="none" stroke="#000000" d="M1918.4515,-612.3868C1784.6802,-596.4537 1473.2479,-559.3601 1299.3562,-538.6484"/>
<polygon fill="#000000" stroke="#000000" points="1299.7307,-535.1683 1289.3869,-537.461 1298.9027,-542.1192 1299.7307,-535.1683"/>
</g>
<!-- MaxFieldValidator -->
<g id="node12" class="node">
<title>MaxFieldValidator</title>
<ellipse fill="none" stroke="#000000" cx="2042.3706" cy="-716" rx="163.1341" ry="29.3315"/>
<text text-anchor="middle" x="2042.3706" y="-707.6" font-family="Times,serif" font-size="28.00" fill="#000000">MaxFieldValidator</text>
</g>
<!-- MaxFieldValidator&#45;&gt;@Max -->
<g id="edge11" class="edge">
<title>MaxFieldValidator&#45;&gt;@Max</title>
<path fill="none" stroke="#000000" d="M2024.0426,-686.6752C2018.2378,-677.3875 2011.7423,-666.9946 2005.6387,-657.2289"/>
<polygon fill="#000000" stroke="#000000" points="2008.4427,-655.1115 2000.1747,-648.4865 2002.5067,-658.8215 2008.4427,-655.1115"/>
</g>
<!-- MaxFieldValidator&#45;&gt;Validator -->
<g id="edge21" class="edge">
<title>MaxFieldValidator&#45;&gt;Validator</title>
<path fill="none" stroke="#000000" d="M2067.5718,-686.5375C2080.4207,-668.5319 2093.3706,-644.3456 2093.3706,-620 2093.3706,-620 2093.3706,-620 2093.3706,-333 2093.3706,-292.0404 1507.0248,-255.2022 1272.0594,-242.0845"/>
<polygon fill="#000000" stroke="#000000" points="1271.9952,-238.5756 1261.8163,-241.5153 1271.6067,-245.5648 1271.9952,-238.5756"/>
</g>
<!-- EmailFieldValidator&#45;&gt;Validator -->
<g id="edge15" class="edge">
<title>EmailFieldValidator&#45;&gt;Validator</title>
<path fill="none" stroke="#000000" d="M1522.3868,-310.0056C1441.7852,-292.9995 1333.6467,-270.1835 1259.8486,-254.6129"/>
<polygon fill="#000000" stroke="#000000" points="1260.1768,-251.1052 1249.6697,-252.4653 1258.7317,-257.9544 1260.1768,-251.1052"/>
</g>
<!-- NegativeFieldValidator&#45;&gt;Validator -->
<g id="edge17" class="edge">
<title>NegativeFieldValidator&#45;&gt;Validator</title>
<path fill="none" stroke="#000000" d="M812.1444,-309.3928C898.7553,-292.1782 1014.0493,-269.2626 1091.5173,-253.8653"/>
<polygon fill="#000000" stroke="#000000" points="1092.5911,-257.2204 1101.7169,-251.838 1091.2265,-250.3547 1092.5911,-257.2204"/>
</g>
<!-- PozitiveFieldValidator&#45;&gt;Validator -->
<g id="edge18" class="edge">
<title>PozitiveFieldValidator&#45;&gt;Validator</title>
<path fill="none" stroke="#000000" d="M1176.3706,-303.4135C1176.3706,-295.0189 1176.3706,-285.7386 1176.3706,-276.8433"/>
<polygon fill="#000000" stroke="#000000" points="1179.8707,-276.654 1176.3706,-266.6541 1172.8707,-276.6541 1179.8707,-276.654"/>
</g>
<!-- FieldContext -->
<g id="node17" class="node">
<title>FieldContext</title>
<ellipse fill="none" stroke="#000000" cx="1176.3706" cy="-125" rx="114.9164" ry="29.3315"/>
<text text-anchor="middle" x="1176.3706" y="-116.6" font-family="Times,serif" font-size="28.00" fill="#000000">FieldContext</text>
</g>
<!-- Validator&#45;&gt;FieldContext -->
<g id="edge22" class="edge">
<title>Validator&#45;&gt;FieldContext</title>
<path fill="none" stroke="#0000ff" d="M1176.3706,-207.5733C1176.3706,-194.5583 1176.3706,-179.0503 1176.3706,-165.007"/>
<polygon fill="#0000ff" stroke="#0000ff" points="1179.8707,-164.619 1176.3706,-154.619 1172.8707,-164.619 1179.8707,-164.619"/>
<text text-anchor="middle" x="1227.8829" y="-176.8" font-family="Times,serif" font-size="14.00" fill="#000000"> &#160;&#160;&#160;Strategy pattern</text>
</g>
<!-- IsValidObject -->
<g id="node18" class="node">
<title>IsValidObject</title>
<ellipse fill="none" stroke="#000000" cx="1176.3706" cy="-29" rx="122.2287" ry="29.3315"/>
<text text-anchor="middle" x="1176.3706" y="-20.6" font-family="Times,serif" font-size="28.00" fill="#000000">IsValidObject</text>
</g>
<!-- FieldContext&#45;&gt;IsValidObject -->
<g id="edge23" class="edge">
<title>FieldContext&#45;&gt;IsValidObject</title>
<path fill="none" stroke="#000000" d="M1176.3706,-95.4135C1176.3706,-87.0189 1176.3706,-77.7386 1176.3706,-68.8433"/>
<polygon fill="#000000" stroke="#000000" points="1179.8707,-68.654 1176.3706,-58.6541 1172.8707,-68.6541 1179.8707,-68.654"/>
</g>
</g>
</svg>
